<svg width="183" height="181" viewBox="0 0 183 181" fill="none" xmlns="http://www.w3.org/2000/svg">
<g clip-path="url(#clip0_7_17)">
<rect width="182.414" height="181" rx="32" fill="white"/>
<path d="M86.0273 17.2209L86.3329 17.2827C86.6747 18.0803 86.495 41.8017 86.5073 44.9132C86.5118 46.0232 86.6148 47.546 86.1171 48.5632C84.7444 51.3689 71.8467 63.2797 68.9422 66.2056C66.0176 69.1515 46.2847 88.6028 44.4931 89.0712C42.3472 89.6324 37.6729 89.1488 35.2167 89.1362L16.5713 89.1498C16.4754 89.1509 16.1462 89.0827 16.0314 89.062C15.4071 88.0075 16.4962 79.6701 16.8055 77.866C19.2793 63.6182 25.9606 50.4369 35.9893 40.0184C48.6686 26.6244 67.5543 17.7376 86.0273 17.2209Z" fill="#004033"/>
<path d="M94.7298 17.1062C98.427 17.6456 101.873 17.7049 105.794 18.4187C119.164 20.8733 131.559 27.0828 141.53 36.3214C151.52 45.7177 158.99 57.2819 162.921 70.5352C164.382 75.4634 165.307 84.1167 165.467 89.2308L160.973 89.2169L135.433 89.2392C133.391 87.6496 130.307 84.4898 128.368 82.6408C125.367 79.7791 121.964 76.9243 119.455 73.6809C119.469 67.8637 119.307 61.8626 119.303 55.9871C114.852 55.6603 109.49 55.8017 104.983 55.8498C104.989 57.4539 105.122 58.9872 105.246 60.5828C102.638 58.0384 96.5856 53.2011 94.6591 50.4825C94.1548 43.6109 94.8076 35.9529 94.5638 28.9971C94.4336 25.2781 94.524 20.8192 94.7298 17.1062Z" fill="#004033"/>
<path d="M157.183 96.9517C159.873 96.8651 162.565 96.8752 165.254 96.9823C164.749 101.395 164.339 105.929 163.203 110.257C160.976 118.749 156.287 128.096 151.131 135.166C139.242 151.284 121.426 162.008 101.618 164.969C99.3345 165.303 97.0379 165.537 94.7346 165.671C94.4929 154.022 94.7811 142.336 94.7233 130.706C96.8521 130.953 101.47 130.82 103.778 130.809L123.258 130.614L123.576 97.0219C127.618 97.3501 133.201 97.1133 137.341 97.0823C143.955 97.0901 150.57 97.0466 157.183 96.9517Z" fill="#EC7400"/>
<path d="M32.7159 96.9512L47.3792 96.9858C50.0819 96.992 53.5555 97.0866 56.2 96.9153C56.2509 104.122 56.2613 111.33 56.2311 118.537C56.2168 122.176 56.3202 126.883 56.0354 130.425C66.1682 130.363 76.3014 130.429 86.4325 130.625C86.3057 142.194 86.5631 153.824 86.4201 165.44C81.9536 165.37 76.9544 164.496 72.6084 163.522C62.3791 160.914 52.706 156.574 44.3855 149.991C31.4898 139.906 22.266 125.861 18.1336 110.02C17.1218 105.986 16.5432 101.168 16.0575 97.0381C21.6104 97.0394 27.1633 97.0104 32.7159 96.9512Z" fill="#004033"/>
<path d="M75.6583 97.6294C78.1758 97.9124 84.5536 97.739 87.3165 97.7392C87.3045 99.3436 87.5284 110.505 87.1056 111.174C83.236 111.262 79.3656 111.301 75.4951 111.29C75.4055 106.794 75.5434 102.125 75.6583 97.6294Z" fill="#004033"/>
<path d="M93.1298 97.5654C96.2862 97.8421 101.351 97.7192 104.628 97.7325L104.657 106.264C104.664 107.628 104.741 109.933 104.624 111.19C100.742 111.282 96.8585 111.286 92.9764 111.201C92.9615 106.656 93.0126 102.11 93.1298 97.5654Z" fill="#004033"/>
</g>
<defs>
<clipPath id="clip0_7_17">
<rect width="182.414" height="181" rx="32" fill="white"/>
</clipPath>
</defs>
</svg>
